<?xml version="1.0" encoding="UTF-8" standalone="no"?>
<!DOCTYPE svg PUBLIC "-//W3C//DTD SVG 1.1//EN" "http://www.w3.org/Graphics/SVG/1.1/DTD/svg11.dtd">
<svg width="100%" height="100%" viewBox="0 0 719 719" version="1.1" xmlns="http://www.w3.org/2000/svg" xmlns:xlink="http://www.w3.org/1999/xlink" xml:space="preserve" xmlns:serif="http://www.serif.com/" style="fill-rule:evenodd;clip-rule:evenodd;">
    <g id="path3161" transform="matrix(1.12175,0,0,1.12175,-46.5697,9.90946e-10)">
        <path d="M359.09,164.393C331.286,164.393 307.985,169.933 284.09,182.268C279.605,184.583 275.171,187.027 274.215,187.674C273.259,188.321 269.88,190.563 266.715,192.674C246.275,206.31 226.624,226.743 213.059,248.455C210.828,252.026 207.857,256.658 206.465,258.768C205.072,260.878 202.721,265.103 201.215,268.143C198.636,273.347 198.46,273.995 198.465,279.237C198.465,283.517 198.888,285.993 200.215,289.987C203.373,299.49 203.635,301.608 203.559,314.987C203.506,324.173 203.12,330.404 202.09,337.705C199.653,354.973 199.408,355.846 192.496,375.018C191.6,377.505 190.561,382.164 190.184,385.393L189.496,391.268L192.59,400.362C202.568,429.704 213.945,448.521 224.684,453.487C227.457,454.769 228.833,454.869 242.934,454.955C261.808,455.071 266.743,456.111 272.402,461.08C275.435,463.743 275.842,466.092 276.402,484.58L276.871,499.987L288.746,499.987C301.925,499.987 300.794,500.394 301.652,495.299C302.437,490.646 304.751,491.726 305.559,497.112L305.996,499.987L329.277,499.987L329.277,498.112C329.277,490.311 333.354,489.08 334.246,496.612L334.652,499.987L362.652,499.987L362.902,497.987C363.132,496.318 363.887,494.023 364.59,492.893L365.871,490.862L367.184,492.955C367.925,494.148 368.465,496.305 368.465,498.018L368.465,499.987L397.809,499.987L398.215,496.612C399.107,489.08 403.184,490.311 403.184,498.112L403.184,499.987L426.465,499.987L426.902,497.112C427.71,491.726 430.024,490.646 430.809,495.299C431.667,500.394 430.536,499.987 443.715,499.987L455.59,499.987L456.059,484.58C456.619,466.092 457.026,463.743 460.059,461.08C465.718,456.111 470.653,455.071 489.527,454.955C503.628,454.869 505.004,454.769 507.777,453.487C518.516,448.521 529.893,429.704 539.871,400.362L542.965,391.268L542.277,385.393C541.9,382.164 540.861,377.505 539.965,375.018C533.053,355.846 532.808,354.973 530.371,337.705C529.34,330.404 528.955,324.173 528.902,314.987C528.826,301.608 529.087,299.49 532.246,289.987C533.573,285.993 533.996,283.517 533.996,279.237C534.001,273.995 533.825,273.347 531.246,268.143C529.74,265.103 527.389,260.878 525.996,258.768C524.603,256.658 521.633,252.026 519.402,248.455C505.837,226.743 486.186,206.31 465.746,192.674C462.581,190.563 459.202,188.321 458.246,187.674C457.29,187.027 452.856,184.583 448.371,182.268C424.476,169.933 401.175,164.393 373.371,164.393C370.96,164.393 368.573,164.411 366.215,164.487C363.866,164.411 361.491,164.393 359.09,164.393ZM261.434,305.33C262.13,305.285 262.852,305.341 263.777,305.424C269.918,305.981 274.736,308.852 292.715,322.643C316.631,340.989 333.778,358.874 342.152,374.237C343.106,375.985 344.372,378.327 344.996,379.455C345.62,380.584 346.152,382.464 346.152,383.612C346.152,387.156 344.934,387.372 331.215,386.33C324.602,385.828 312.788,385.429 304.934,385.455C292.792,385.498 289.688,385.725 284.246,386.924C270.148,390.032 261.063,387.698 255.652,379.549C254.369,377.616 253.309,375.917 253.309,375.768C253.309,375.619 252.196,373.03 250.809,370.049C247.675,363.315 240.234,345.272 236.09,334.299C233.092,326.361 233.013,325.956 233.809,323.299C235.011,319.285 237.708,317.121 249.496,310.768C257.327,306.548 259.346,305.466 261.434,305.33L261.434,305.33ZM469.934,305.33C470.317,305.312 470.679,305.308 471.027,305.33C473.115,305.466 475.134,306.548 482.965,310.768C494.753,317.121 497.45,319.285 498.652,323.299C499.448,325.956 499.369,326.361 496.371,334.299C492.227,345.272 484.786,363.315 481.652,370.049C480.265,373.03 479.152,375.619 479.152,375.768C479.152,375.917 478.092,377.616 476.809,379.549C471.398,387.698 462.313,390.032 448.215,386.924C442.773,385.725 439.669,385.498 427.527,385.455C419.673,385.429 407.859,385.828 401.246,386.33C387.527,387.372 386.307,387.156 386.309,383.612C386.309,382.464 386.841,380.584 387.465,379.455C388.089,378.327 389.355,375.985 390.309,374.237C398.683,358.874 415.83,340.989 439.746,322.643C457.725,308.852 462.543,305.981 468.684,305.424C469.146,305.382 469.55,305.349 469.934,305.331L469.934,305.33ZM366.215,403.987C371.748,404.551 377.627,411.551 390.027,432.143C398.191,445.699 398.632,447.527 394.496,450.049C392.733,451.124 391.158,451.297 382.215,451.299C376.41,451.299 371.421,451.021 370.715,450.643C368.087,449.237 367.496,446.715 367.496,436.737C367.496,430.294 367.439,428.259 366.965,427.612L366.965,427.455C366.913,427.412 366.837,427.416 366.777,427.393C366.741,427.373 366.693,427.343 366.652,427.33C366.634,427.327 366.609,427.332 366.59,427.33C366.469,427.301 366.338,427.299 366.184,427.299C366.038,427.299 365.922,427.31 365.809,427.33C365.768,427.343 365.72,427.373 365.684,427.393C365.624,427.416 365.548,427.412 365.496,427.455L365.496,427.612C365.022,428.259 364.965,430.294 364.965,436.737C364.965,446.715 364.374,449.237 361.746,450.643C361.04,451.021 356.051,451.299 350.246,451.299C341.303,451.297 339.728,451.124 337.965,450.049C333.829,447.527 334.27,445.699 342.434,432.143C354.811,411.589 360.691,404.574 366.215,403.987Z" style="fill:white;"/>
    </g>
    <g id="path3145" transform="matrix(1.12175,0,0,1.12175,-46.5697,9.90946e-10)">
        <path d="M330.152,639.63C185.132,623.028 71.924,517.651 45.188,374.375C39.954,346.323 40.381,289.863 46.042,261.643C70.892,137.761 160.902,40.978 279.94,10.142C311.362,2.003 327.039,0.069 362.151,0.002C395.495,-0.062 408.887,1.517 439.265,9.094C512.904,27.461 578.246,72.144 623.385,135C646.867,167.7 669.817,221.044 675.989,257.273C676.983,263.11 678.669,272.842 679.737,278.901C683.09,297.941 682.212,347.798 678.104,371.621C658.953,482.677 587.124,573.086 483.381,616.716C470.921,621.956 441.743,631.334 432.651,633.021C393.147,640.35 356.876,642.689 330.152,639.63ZM390.513,628.594C475.296,620.554 551.784,579.24 604.441,513.042C694.217,400.182 693.664,237.759 603.124,125.493C535.73,41.929 430.074,-0.751 323.525,12.548C297.528,15.793 288.719,17.698 267.07,24.755C232.404,36.057 203.195,50.984 175.608,71.496C156.34,85.823 123.223,119.353 110.357,137.56C63.212,204.282 43.943,282.126 54.602,362.806C68.064,464.703 133.756,554.906 226.909,599.405C278.393,623.998 334.124,633.942 390.513,628.594Z" style="fill:white;"/>
    </g>
    <g id="path3159" transform="matrix(1.12175,0,0,1.12175,-46.5697,9.90946e-10)">
        <path d="M633.47,190.333C630.465,184.308 623.951,172.072 621.12,167.327C606.574,142.947 594.463,127.311 574.913,107.68C562.983,95.7 559.529,92.559 548.118,83.32C530.421,68.992 501.719,51.941 479.625,42.63C459.873,34.307 436.473,27.167 418.984,24.135C414.77,23.404 410.009,22.528 408.405,22.182C402.872,20.988 388.337,19.596 374.907,18.98C371.196,18.81 367.139,18.726 362.93,18.718C350.301,18.694 336.268,19.375 325.804,20.592C269.378,27.156 214.199,50.645 170.258,86.813C137.217,114.011 111.063,145.633 91.861,184.977L87.068,194.797C85.828,197.669 84.999,199.57 83.831,202.315L83.83,202.315C74.555,224.117 66.282,253.673 63.148,276.169C58.834,307.14 59.455,343.978 64.788,373.027C76.038,434.298 104.373,488.622 147.595,531.789C158.582,542.761 162.225,546.136 169.662,552.23C218.934,592.6 277.275,615.732 341.673,620.432C343.632,620.575 354.425,620.595 365.649,620.475C391.819,620.195 408.865,618.189 431.487,612.736C505.795,594.823 569.618,550.197 612.401,486.243C639.123,446.298 655.947,399.115 661.199,349.377C662.312,338.833 662.324,300.554 661.22,290.419C659.686,276.339 657.329,262.559 654.234,249.608C649.928,231.596 645.23,217.712 635.987,195.67C635.582,194.704 634.563,192.526 633.469,190.333L633.47,190.333ZM633.964,199.234C643.857,222.147 651.318,246.695 654.88,268.068C658.322,288.716 658.803,295.049 658.799,319.898C658.799,344.691 658.309,351.128 654.894,371.436C651.533,391.425 642.896,420.383 635.433,436.699C634.573,438.581 633.871,440.266 633.871,440.441C633.871,440.95 625.322,458.007 621.872,464.382C617.195,473.026 603.301,494.626 600.828,497.099C600.65,497.277 599.055,499.312 597.285,501.628C569.08,538.536 528.831,570.788 487.122,589.902C473.317,596.229 467.282,598.612 454.086,602.923C439.657,607.638 433.873,609.154 417.479,612.523C414.158,613.205 398.824,615.49 391.564,616.385C383.076,617.431 350.588,617.82 339.543,617.01C282.54,612.829 227.21,592.047 182.293,557.931C133.567,520.923 98.498,472.518 79.066,415.463C65.375,375.262 60.725,334.558 64.753,290.241C65.613,280.782 68.838,260.271 70.177,255.757C70.494,254.688 71.247,251.49 71.853,248.65C74.543,236.034 82.271,213.407 88.63,199.518C89.307,198.039 89.919,196.621 91.185,193.698C92.282,191.409 92.556,190.862 92.883,190.16C97.73,179.768 108.073,162.064 116.064,150.479C119.765,145.113 130.165,131.385 132.068,129.356C132.434,128.965 134.163,126.93 135.909,124.827C140.58,119.201 163.721,96.309 169.271,91.826C191.416,73.937 209.391,62.268 230.885,51.825C240.173,47.312 241.006,46.939 251.617,42.637C257.816,40.124 267.612,36.765 278.944,33.265C286.459,30.945 301.506,27.545 310.575,26.123C315.385,25.368 320.926,24.485 322.886,24.156C336.06,21.947 370.751,21.203 387.354,22.772C451.586,28.84 509.726,53.764 558.065,95.951C571.193,107.408 588.092,125.676 599.792,141.057C609.398,153.687 622.769,175.437 628.362,187.533C630.389,191.521 632.099,194.88 633.964,199.234Z" style="fill:white;stroke:rgb(255,255,0);stroke-width:0.23px;"/>
    </g>
</svg>
